<?xml version="1.0" standalone="no"?>
<!DOCTYPE svg PUBLIC "-//W3C//DTD SVG 20010904//EN"
 "http://www.w3.org/TR/2001/REC-SVG-20010904/DTD/svg10.dtd">
<svg version="1.0" xmlns="http://www.w3.org/2000/svg"
 width="400.000000pt" height="400.000000pt" viewBox="0 0 400.000000 400.000000"
 preserveAspectRatio="xMidYMid meet">
<metadata>
Created by potrace 1.15, written by Peter Selinger 2001-2017
</metadata>
<g transform="translate(0.000000,400.000000) scale(0.100000,-0.100000)"
fill="#000000" stroke="none">
<path d="M0 3189 l0 -811 39 49 c21 26 66 75 100 108 81 79 93 69 62 -47 -23
-88 -36 -105 -98 -128 -20 -7 -51 -21 -69 -32 l-34 -20 0 -83 0 -84 48 -3 c46
-3 47 -3 44 -36 -4 -60 50 -52 63 9 8 37 43 47 79 24 23 -15 33 -16 91 -5 51
10 72 10 94 0 24 -9 45 -8 111 5 63 13 84 14 96 5 16 -14 19 -82 4 -111 -8
-13 -7 -25 0 -39 6 -12 7 -27 2 -37 -4 -10 -6 -68 -2 -130 5 -109 6 -113 37
-145 17 -18 33 -44 35 -58 3 -24 5 -25 78 -24 41 0 89 6 107 14 18 8 34 12 37
10 2 -3 12 -66 21 -140 18 -140 28 -216 39 -285 10 -68 -38 88 -69 225 -15 69
-34 132 -42 140 -11 12 -20 12 -60 2 -27 -7 -61 -20 -77 -28 -16 -8 -35 -14
-41 -14 -7 0 -22 28 -35 61 -12 34 -52 121 -89 193 -38 72 -73 148 -80 169
-11 33 -16 37 -47 37 -28 0 -36 -5 -45 -27 -14 -37 -5 -53 31 -53 43 0 37 -30
-11 -48 -36 -14 -59 2 -59 40 0 42 -18 24 -22 -22 -6 -66 -58 -45 -78 33 -14
52 -33 67 -82 67 -21 0 -55 7 -75 15 -19 8 -51 15 -69 15 l-34 0 0 -780 0
-780 24 0 c25 0 172 17 399 46 98 13 133 14 153 6 22 -11 23 -14 13 -34 -7
-13 -18 -28 -25 -35 -7 -7 -10 -22 -7 -34 4 -13 2 -20 -4 -16 -11 7 -37 -50
-48 -103 -8 -36 -12 -45 -38 -95 -13 -24 -26 -32 -69 -42 -29 -6 -58 -20 -65
-29 -11 -16 -9 -20 18 -37 24 -16 41 -19 87 -14 62 7 92 30 92 72 0 12 12 54
26 91 14 38 36 101 49 139 34 104 55 143 84 154 47 17 274 33 311 21 18 -6 18
26 2 110 -6 30 -16 103 -21 161 -6 58 -17 127 -26 153 -9 26 -13 51 -10 54 6
6 41 6 178 1 20 0 37 -5 37 -9 0 -5 -14 -24 -31 -42 -17 -18 -40 -52 -51 -75
-25 -54 -48 -74 -48 -44 0 11 -4 21 -10 21 -14 0 -13 -53 2 -68 7 -7 11 -48
10 -119 -2 -59 1 -114 6 -121 7 -10 23 -10 78 -1 127 20 339 37 349 27 6 -6 2
-24 -14 -51 -13 -23 -34 -62 -48 -87 -69 -129 -81 -145 -114 -156 -18 -6 -39
-21 -47 -32 -12 -19 -11 -24 12 -47 29 -29 79 -33 114 -9 13 9 39 50 59 92
107 231 143 300 160 307 10 4 122 15 248 26 127 10 240 21 251 24 32 7 45 -16
57 -105 9 -67 8 -83 -4 -94 -8 -7 -68 -21 -134 -30 -211 -31 -380 -88 -391
-132 -10 -41 5 -67 67 -118 77 -62 118 -90 187 -127 l55 -29 -964 -3 c-530 -1
-63 -3 1039 -5 l2002 -2 0 254 0 254 -27 6 c-128 27 -594 36 -879 16 -374 -25
-551 -41 -736 -65 -59 -8 -113 -12 -121 -9 -25 9 -38 150 -18 183 9 14 124 29
406 55 196 18 275 30 272 40 -3 6 -9 10 -15 9 -21 -5 -318 -23 -347 -22 -16 1
-55 -3 -85 -9 -30 -6 -90 -12 -133 -14 l-78 -3 3 45 3 45 55 0 c30 1 64 4 75
7 11 4 108 10 215 13 107 4 213 8 235 11 22 2 173 6 335 8 309 3 389 12 422
48 9 10 14 27 11 38 -3 11 -1 21 3 21 5 1 23 4 39 6 17 3 105 4 198 3 147 -2
167 0 167 14 0 14 -23 16 -194 16 -107 0 -206 4 -219 9 -32 12 -44 48 -24 68
13 13 26 13 108 -1 104 -17 259 -36 302 -36 l27 0 0 185 0 186 -32 -5 c-18 -3
-82 -8 -143 -11 -165 -9 -311 -24 -505 -52 -255 -37 -250 -37 -250 -23 0 24
61 89 93 99 18 6 75 18 127 27 52 9 97 18 100 21 3 2 6 19 7 36 2 18 6 55 9
84 5 45 3 53 -15 63 -12 6 -21 8 -21 4 0 -3 -11 1 -23 9 -36 24 -106 41 -172
44 -100 4 -140 8 -150 14 -30 19 -76 20 -102 1 -16 -10 -54 -31 -85 -45 -46
-20 -60 -33 -73 -62 -14 -35 -17 -37 -47 -31 -18 4 -44 7 -58 7 -14 0 -38 -1
-55 -1 -39 0 -119 -73 -110 -101 3 -10 1 -28 -5 -40 -9 -16 -17 -19 -37 -14
-23 5 -25 4 -19 -19 5 -21 0 -32 -26 -56 -18 -16 -38 -30 -45 -30 -16 0 -83
80 -83 99 0 9 17 59 38 111 37 94 37 94 81 105 75 18 104 80 58 123 -35 33
-52 27 -26 -8 19 -25 21 -33 11 -54 -14 -30 -54 -43 -88 -27 -21 9 -26 8 -31
-7 -11 -31 -51 -126 -83 -195 l-30 -68 -25 27 c-14 15 -25 34 -25 42 0 25 -43
82 -62 82 -10 0 -22 -9 -28 -20 -13 -24 -50 -27 -50 -4 0 44 163 124 224 108
18 -4 27 -1 36 15 12 24 6 41 -15 41 -12 0 -178 -50 -223 -67 -8 -4 -12 5 -11
28 1 19 1 63 -1 99 -1 42 4 78 14 102 24 55 20 135 -7 179 -79 130 -124 179
-194 211 -61 27 -89 57 -79 83 5 15 87 27 156 24 25 -1 72 -2 105 -1 33 1 102
1 153 1 83 -1 96 2 113 20 16 17 32 21 79 21 53 0 63 3 91 31 18 17 46 37 63
44 39 17 78 53 73 68 -2 7 -20 11 -43 10 -21 -1 -88 -5 -149 -9 -99 -6 -122
-3 -225 21 -155 37 -248 72 -425 161 -103 51 -180 82 -240 97 l-90 22 1 114
c1 107 2 116 24 133 19 15 37 18 89 16 65 -3 65 -3 66 -33 0 -27 4 -30 45 -38
25 -5 190 -6 368 -3 l323 6 22 -24 c12 -12 42 -48 67 -79 25 -31 51 -57 58
-57 28 0 69 34 108 87 53 74 86 90 117 58 17 -16 23 -53 37 -227 11 -127 16
-150 34 -146 7 2 27 -11 44 -29 18 -17 54 -46 80 -64 65 -44 203 -129 209
-129 10 0 93 -64 93 -72 0 -4 -24 2 -52 13 -85 33 -43 5 99 -65 134 -67 163
-76 163 -53 0 16 65 51 79 43 11 -7 39 28 128 162 72 107 76 107 88 -2 4 -35
10 -54 15 -47 11 18 17 5 36 -80 16 -69 39 -118 57 -119 4 0 13 -5 20 -10 13
-11 62 -44 119 -79 l38 -23 0 966 0 966 -2000 0 -2000 0 0 -811z m1518 674
c71 -148 85 -168 118 -168 23 0 29 4 28 20 -3 37 -23 160 -33 198 -8 35 -8 37
16 37 14 0 21 -4 18 -10 -3 -6 1 -13 9 -16 9 -3 16 -10 16 -16 0 -29 251 -314
309 -350 32 -20 34 -20 63 -4 l29 18 -7 -81 c-4 -58 -3 -86 6 -96 19 -23 -20
-19 -120 11 -47 14 -103 30 -125 34 -22 5 -61 16 -85 25 -25 9 -74 22 -110 30
-36 7 -78 18 -93 24 -38 15 -39 14 -27 -9 14 -26 7 -36 -28 -43 -18 -4 -31
-14 -35 -26 -6 -24 -39 -28 -57 -7 -6 8 -27 20 -46 26 -30 10 -40 24 -35 53 0
4 -10 7 -24 7 -15 0 -25 6 -25 14 0 8 -8 13 -17 12 -15 -1 -18 9 -21 60 -3 55
1 70 43 155 26 52 53 105 61 119 7 14 14 35 14 48 0 20 5 22 58 22 l57 0 43
-87z m-358 -450 c12 -16 40 -43 62 -60 33 -27 50 -33 89 -33 56 0 56 0 36
-109 -11 -58 -15 -65 -40 -72 -39 -11 -278 -39 -327 -39 l-40 0 1 110 2 111
36 25 c59 41 145 94 152 94 4 0 17 -12 29 -27z m-334 -397 c6 -16 -11 -151
-27 -208 -8 -30 -27 -51 -95 -105 -46 -37 -108 -81 -137 -96 -29 -16 -56 -33
-62 -37 -22 -17 -153 -80 -167 -80 -13 0 -14 6 -1 48 8 26 22 65 32 87 17 38
44 106 91 235 30 83 37 90 59 63 10 -12 22 -44 25 -70 10 -67 34 -151 47 -158
7 -5 8 43 3 148 l-7 155 24 7 c29 10 119 22 172 24 24 1 40 -4 43 -13z m713
-266 c48 -13 52 -29 12 -53 -33 -19 -60 -13 -109 23 l-29 21 -36 -21 c-31 -18
-41 -20 -76 -10 -22 6 -43 15 -46 20 -11 18 -43 10 -59 -15 -26 -39 -61 -49
-125 -35 -53 12 -53 12 -86 -20 -32 -31 -35 -31 -90 -25 -57 8 -58 7 -52 -16
9 -34 -18 -59 -64 -59 -25 0 -42 -6 -51 -18 -16 -23 -50 -42 -75 -42 -11 0
-35 -16 -54 -36 -40 -41 -77 -60 -139 -70 -25 -3 -69 -20 -98 -36 -47 -27 -58
-30 -106 -24 -34 5 -56 3 -61 -3 -3 -6 -32 -18 -63 -27 -31 -9 -64 -19 -72
-21 -19 -6 35 24 212 115 76 39 148 78 160 86 30 21 35 20 34 -6 -1 -18 4 -22
19 -20 23 4 139 73 238 141 66 46 142 81 242 114 50 17 272 54 355 59 56 4
164 -7 219 -22z m243 -104 c84 -41 177 -82 206 -90 129 -39 150 -45 204 -57
32 -6 55 -16 52 -21 -8 -13 -69 -9 -90 7 -10 8 -37 15 -59 15 -22 0 -59 9 -83
20 -23 10 -59 22 -80 26 -20 4 -54 15 -74 25 -21 11 -45 19 -55 19 -10 0 -31
9 -48 20 -16 11 -38 20 -48 20 -20 0 -87 61 -87 79 0 6 2 11 5 11 2 0 73 -33
157 -74z m-703 -5 c7 -5 17 -33 22 -62 5 -30 14 -65 21 -77 26 -50 101 -66
164 -36 44 21 54 41 59 111 2 30 6 56 7 58 2 1 24 0 51 -3 44 -4 47 -6 47 -33
0 -30 -3 -32 -53 -44 -18 -3 -35 -17 -45 -37 -19 -35 -57 -76 -87 -95 -19 -11
-18 -12 13 -23 28 -10 33 -16 28 -35 -4 -15 -1 -25 9 -29 20 -7 27 8 19 40 -9
35 18 59 49 43 13 -8 27 -8 42 -1 14 7 26 7 32 1 6 -6 24 -2 49 11 21 10 35
20 29 20 -5 1 12 8 38 16 51 16 87 58 87 102 0 13 6 22 15 22 32 0 12 -74 -32
-114 l-28 -26 27 0 c17 0 39 12 58 30 26 26 33 28 54 19 33 -15 40 -73 15
-115 -28 -46 -50 -61 -99 -69 -70 -10 -185 -43 -252 -71 l-60 -25 -46 30
c-171 108 -384 150 -542 106 -105 -29 -114 -29 -129 -3 -20 38 -11 90 19 104
14 6 49 23 78 37 28 15 59 27 68 27 8 0 29 8 47 17 51 27 135 35 164 16 18
-12 23 -22 19 -38 -4 -15 1 -28 14 -40 11 -10 20 -23 20 -29 0 -17 54 -46 83
-46 42 0 41 18 -1 29 -21 6 -48 21 -59 33 -25 28 -53 81 -53 103 0 9 -9 15
-24 15 -36 0 -41 18 -15 46 23 25 53 30 78 15z m-294 -1257 c58 -117 137 -239
163 -253 13 -7 23 -6 30 1 9 9 12 7 12 -10 0 -16 -6 -22 -22 -23 -67 -3 78
-21 216 -27 114 -5 161 -11 164 -19 3 -10 -41 -13 -198 -13 -144 0 -228 -5
-291 -16 -49 -9 -92 -14 -95 -11 -11 10 7 47 23 47 11 0 13 3 5 13 -9 11 -23
77 -52 248 -6 31 -17 76 -25 99 -20 56 -19 72 3 68 10 -2 36 -41 67 -104z
m1296 -664 c9 -41 7 -45 -19 -31 -13 7 -22 7 -31 -2 -6 -6 -37 -12 -69 -14
-31 -1 -84 -7 -117 -12 -33 -5 -83 -6 -111 -4 -38 4 -58 1 -78 -12 -25 -17
-26 -17 -26 2 0 11 11 30 25 43 14 13 25 29 25 37 0 16 22 17 37 2 8 -8 48 -9
125 -5 143 7 177 11 191 25 20 20 41 7 48 -29z m-550 -1 c-14 -11 -26 -30 -28
-42 -5 -34 -20 -41 -81 -42 -35 0 -56 -4 -55 -11 1 -6 -17 -11 -43 -11 -31 -1
-44 3 -44 13 0 9 -8 13 -22 10 -67 -12 -102 -15 -78 -7 22 8 20 9 -17 10 -63
1 -51 31 13 31 17 0 24 6 24 20 0 11 7 21 15 21 8 1 23 2 33 3 9 1 23 5 29 9
9 6 11 3 6 -9 -5 -14 -3 -15 14 -5 16 8 24 7 34 -5 13 -16 55 -16 52 1 -1 6
-15 12 -30 15 -24 4 50 12 172 18 l30 1 -24 -20z"/>
<path d="M3677 803 c-4 -4 -60 -8 -124 -10 -65 -2 -145 -8 -178 -13 -33 -5
-89 -10 -125 -11 -36 0 -81 -7 -100 -15 -32 -12 -22 -13 100 -6 256 14 509 5
713 -25 33 -5 37 -3 37 16 0 18 -6 21 -44 21 -25 0 -57 5 -73 11 -15 7 -54 11
-86 10 -38 -1 -65 4 -80 14 -24 17 -31 18 -40 8z"/>
</g>
</svg>
